<svg id="visual" viewBox="0 0 900 600" width="900" height="600" xmlns="http://www.w3.org/2000/svg" xmlns:xlink="http://www.w3.org/1999/xlink" version="1.1"><path d="M0 133L13.7 147C27.3 161 54.7 189 82 194C109.3 199 136.7 181 163.8 169C191 157 218 151 245.2 147C272.3 143 299.7 141 327 133C354.3 125 381.7 111 409 127C436.3 143 463.7 189 491 200C518.3 211 545.7 187 573 177C600.3 167 627.7 171 654.8 163C682 155 709 135 736.2 130C763.3 125 790.7 135 818 151C845.3 167 872.7 189 886.3 200L900 211L900 0L886.3 0C872.7 0 845.3 0 818 0C790.7 0 763.3 0 736.2 0C709 0 682 0 654.8 0C627.7 0 600.3 0 573 0C545.7 0 518.3 0 491 0C463.7 0 436.3 0 409 0C381.7 0 354.3 0 327 0C299.7 0 272.3 0 245.2 0C218 0 191 0 163.8 0C136.7 0 109.3 0 82 0C54.7 0 27.3 0 13.7 0L0 0Z" fill="#8ec1de"></path><path d="M0 409L13.7 397C27.3 385 54.7 361 82 355C109.3 349 136.7 361 163.8 360C191 359 218 345 245.2 342C272.3 339 299.7 347 327 348C354.3 349 381.7 343 409 351C436.3 359 463.7 381 491 385C518.3 389 545.7 375 573 372C600.3 369 627.7 377 654.8 368C682 359 709 333 736.2 318C763.3 303 790.7 299 818 301C845.3 303 872.7 311 886.3 315L900 319L900 209L886.3 198C872.7 187 845.3 165 818 149C790.7 133 763.3 123 736.2 128C709 133 682 153 654.8 161C627.7 169 600.3 165 573 175C545.7 185 518.3 209 491 198C463.7 187 436.3 141 409 125C381.7 109 354.3 123 327 131C299.7 139 272.3 141 245.2 145C218 149 191 155 163.8 167C136.7 179 109.3 197 82 192C54.7 187 27.3 159 13.7 145L0 131Z" fill="#73b3d7"></path><path d="M0 475L13.7 472C27.3 469 54.7 463 82 464C109.3 465 136.7 473 163.8 476C191 479 218 477 245.2 468C272.3 459 299.7 443 327 433C354.3 423 381.7 419 409 425C436.3 431 463.7 447 491 453C518.3 459 545.7 455 573 451C600.3 447 627.7 443 654.8 446C682 449 709 459 736.2 461C763.3 463 790.7 457 818 455C845.3 453 872.7 455 886.3 456L900 457L900 317L886.3 313C872.7 309 845.3 301 818 299C790.7 297 763.3 301 736.2 316C709 331 682 357 654.8 366C627.7 375 600.3 367 573 370C545.7 373 518.3 387 491 383C463.7 379 436.3 357 409 349C381.7 341 354.3 347 327 346C299.7 345 272.3 337 245.2 340C218 343 191 357 163.8 358C136.7 359 109.3 347 82 353C54.7 359 27.3 383 13.7 395L0 407Z" fill="#56a6d1"></path><path d="M0 523L13.7 525C27.3 527 54.7 531 82 535C109.3 539 136.7 543 163.8 542C191 541 218 535 245.2 534C272.3 533 299.7 537 327 532C354.3 527 381.7 513 409 510C436.3 507 463.7 515 491 522C518.3 529 545.7 535 573 534C600.3 533 627.7 525 654.8 526C682 527 709 537 736.2 545C763.3 553 790.7 559 818 562C845.3 565 872.7 565 886.3 565L900 565L900 455L886.3 454C872.7 453 845.3 451 818 453C790.7 455 763.3 461 736.2 459C709 457 682 447 654.8 444C627.7 441 600.3 445 573 449C545.7 453 518.3 457 491 451C463.7 445 436.3 429 409 423C381.7 417 354.3 421 327 431C299.7 441 272.3 457 245.2 466C218 475 191 477 163.8 474C136.7 471 109.3 463 82 462C54.7 461 27.3 467 13.7 470L0 473Z" fill="#4990b6"></path><path d="M0 601L13.7 601C27.3 601 54.7 601 82 601C109.3 601 136.7 601 163.8 601C191 601 218 601 245.2 601C272.3 601 299.7 601 327 601C354.3 601 381.7 601 409 601C436.3 601 463.7 601 491 601C518.3 601 545.7 601 573 601C600.3 601 627.7 601 654.8 601C682 601 709 601 736.2 601C763.3 601 790.7 601 818 601C845.3 601 872.7 601 886.3 601L900 601L900 563L886.3 563C872.7 563 845.3 563 818 560C790.7 557 763.3 551 736.2 543C709 535 682 525 654.8 524C627.7 523 600.3 531 573 532C545.7 533 518.3 527 491 520C463.7 513 436.3 505 409 508C381.7 511 354.3 525 327 530C299.7 535 272.3 531 245.2 532C218 533 191 539 163.8 540C136.7 541 109.3 537 82 533C54.7 529 27.3 525 13.7 523L0 521Z" fill="#3d7a9b"></path></svg>